<svg width="55" height="55" viewBox="0 0 55 55" fill="none" xmlns="http://www.w3.org/2000/svg">
<path d="M22.9168 43.5415C22.3813 43.5425 21.8624 43.356 21.4501 43.0144C21.2181 42.822 21.0263 42.5857 20.8857 42.3191C20.7451 42.0525 20.6584 41.7607 20.6308 41.4606C20.6031 41.1604 20.6349 40.8577 20.7244 40.5699C20.8139 40.282 20.9592 40.0147 21.1522 39.7831L31.4189 27.4998L21.5189 15.1935C21.3285 14.9591 21.1864 14.6894 21.1006 14.3999C21.0148 14.1103 20.9871 13.8067 21.019 13.5064C21.051 13.2062 21.1419 12.9152 21.2867 12.6502C21.4315 12.3852 21.6272 12.1514 21.8626 11.9623C22.0997 11.7537 22.3774 11.5963 22.6782 11.5001C22.979 11.4038 23.2965 11.3708 23.6107 11.4031C23.9248 11.4354 24.2289 11.5323 24.5039 11.6876C24.7789 11.843 25.0187 12.0536 25.2085 12.306L36.2772 26.056C36.6143 26.4661 36.7985 26.9804 36.7985 27.5112C36.7985 28.042 36.6143 28.5564 36.2772 28.9665L24.8189 42.7164C24.589 42.9938 24.2969 43.213 23.9665 43.3564C23.636 43.4997 23.2764 43.5631 22.9168 43.5415Z" fill="#7D1CD8"/>
</svg>
