<svg width="153" height="46" viewBox="0 0 153 46" fill="none" xmlns="http://www.w3.org/2000/svg">
<rect width="153" height="46" rx="8" fill="#EDE9FE"/>
<path d="M36.2132 18.89H37.8182V19.4C37.8182 21.815 36.5732 23.96 33.9332 24.725L32.9882 23.18C35.2382 22.55 36.2132 20.96 36.2132 19.4V18.89ZM36.5882 18.89H38.2082V19.4C38.2082 20.81 39.1682 22.25 41.4032 22.835L40.5032 24.395C37.8332 23.69 36.5882 21.65 36.5882 19.4V18.89ZM33.4832 17.885H40.9382V19.445H33.4832V17.885ZM36.2132 16.4H38.2082V18.5H36.2132V16.4ZM42.0332 16.445H44.0282V24.815H42.0332V16.445ZM43.4732 19.7H45.8732V21.335H43.4732V19.7ZM39.4982 25.07C42.3932 25.07 44.1932 26.045 44.1932 27.71C44.1932 29.375 42.3932 30.335 39.4982 30.335C36.5882 30.335 34.7882 29.375 34.7882 27.71C34.7882 26.045 36.5882 25.07 39.4982 25.07ZM39.4982 26.6C37.7132 26.6 36.7682 26.945 36.7682 27.71C36.7682 28.46 37.7132 28.82 39.4982 28.82C41.2682 28.82 42.2132 28.46 42.2132 27.71C42.2132 26.945 41.2682 26.6 39.4982 26.6ZM49.982 17.87H51.617V18.74C51.617 21.365 50.372 23.72 47.717 24.575L46.682 23.03C49.007 22.28 49.982 20.48 49.982 18.74V17.87ZM50.387 17.87H52.007V18.74C52.007 20.375 52.952 22.07 55.202 22.79L54.182 24.335C51.587 23.495 50.387 21.23 50.387 18.74V17.87ZM47.222 17.255H54.722V18.845H47.222V17.255ZM55.832 16.445H57.827V24.815H55.832V16.445ZM57.272 19.805H59.672V21.44H57.272V19.805ZM48.557 25.415H57.827V30.335H55.832V27.02H48.557V25.415ZM63.8108 18.635H65.3858V20.195C65.3858 23.33 64.0658 26.525 61.5158 27.725L60.3908 26.15C62.6858 25.07 63.8108 22.475 63.8108 20.195V18.635ZM64.2308 18.635H65.8058V20.195C65.8058 22.295 66.8858 24.755 69.1658 25.805L68.0708 27.38C65.5208 26.195 64.2308 23.15 64.2308 20.195V18.635ZM60.9308 17.78H68.5508V19.415H60.9308V17.78ZM69.5708 16.445H71.5808V30.335H69.5708V16.445ZM71.1308 21.74H73.5908V23.39H71.1308V21.74ZM87.0904 16.43H89.1004V30.32H87.0904V16.43ZM88.5754 21.74H91.0204V23.375H88.5754V21.74ZM83.4454 17.87H85.3954C85.3954 22.04 83.8054 25.61 79.1854 27.935L78.0754 26.42C81.7204 24.53 83.4454 21.98 83.4454 18.215V17.87ZM78.8404 17.87H84.4654V19.475H78.8404V17.87ZM101.534 16.43H103.544V30.365H101.534V16.43ZM96.0592 17.405C98.1592 17.405 99.7042 19.325 99.7042 22.355C99.7042 25.415 98.1592 27.335 96.0592 27.335C93.9592 27.335 92.4142 25.415 92.4142 22.355C92.4142 19.325 93.9592 17.405 96.0592 17.405ZM96.0592 19.22C95.0242 19.22 94.3192 20.315 94.3192 22.355C94.3192 24.425 95.0242 25.535 96.0592 25.535C97.0942 25.535 97.7842 24.425 97.7842 22.355C97.7842 20.315 97.0942 19.22 96.0592 19.22ZM107.278 22.85H117.043V24.44H107.278V22.85ZM105.823 27.035H118.393V28.67H105.823V27.035ZM107.278 17.585H116.938V19.205H109.258V23.51H107.278V17.585Z" fill="#7D1CD8"/>
</svg>
