<svg width="30" height="30" viewBox="0 0 30 30" fill="none" xmlns="http://www.w3.org/2000/svg">
<path d="M23.4743 14.2123L17.4993 6.71228C17.3961 6.58387 17.2686 6.47711 17.1241 6.39814C16.9795 6.31918 16.8208 6.26956 16.657 6.25213C16.4932 6.23471 16.3276 6.24982 16.1697 6.29661C16.0118 6.3434 15.8646 6.42094 15.7368 6.52478C15.6084 6.62793 15.5016 6.75544 15.4226 6.89999C15.3437 7.04453 15.2941 7.20326 15.2766 7.36705C15.2592 7.53083 15.2743 7.69645 15.3211 7.85437C15.3679 8.0123 15.4454 8.15942 15.5493 8.28728L20.8868 14.9998L15.2868 21.7123C15.1815 21.8386 15.1022 21.9844 15.0534 22.1414C15.0046 22.2984 14.9873 22.4635 15.0023 22.6272C15.0174 22.791 15.0647 22.9501 15.1414 23.0955C15.2181 23.241 15.3227 23.3698 15.4493 23.4748C15.6759 23.6566 15.9587 23.7539 16.2493 23.7498C16.4329 23.7501 16.6144 23.7099 16.7807 23.6321C16.9471 23.5544 17.0942 23.4409 17.2118 23.2998L23.4618 15.7998C23.6474 15.5776 23.7501 15.2978 23.7524 15.0083C23.7547 14.7187 23.6564 14.4374 23.4743 14.2123Z" fill="#7D1CD8"/>
<path d="M8.74927 6.71244C8.54041 6.44557 8.23409 6.27259 7.8977 6.23157C7.56131 6.19055 7.2224 6.28483 6.95552 6.49369C6.68865 6.70255 6.51567 7.00887 6.47465 7.34526C6.43362 7.68166 6.52791 8.02057 6.73677 8.28744L12.1368 14.9999L6.53677 21.6999C6.43152 21.8263 6.35222 21.9721 6.30341 22.1291C6.25461 22.2861 6.23725 22.4512 6.25235 22.6149C6.26744 22.7786 6.31469 22.9378 6.39138 23.0832C6.46807 23.2286 6.5727 23.3575 6.69927 23.4624C6.92416 23.6488 7.20721 23.7505 7.49927 23.7499C7.68291 23.7502 7.86436 23.7101 8.03071 23.6323C8.19707 23.5545 8.34424 23.441 8.46177 23.2999L14.7118 15.7999C14.8956 15.5763 14.9961 15.2957 14.9961 15.0062C14.9961 14.7167 14.8956 14.4361 14.7118 14.2124L8.74927 6.71244Z" fill="#7D1CD8"/>
</svg>
