<svg width="50" height="50" viewBox="0 0 50 50" fill="none" xmlns="http://www.w3.org/2000/svg">
<path d="M39.1238 23.6873L29.1655 11.1873C28.9935 10.9733 28.781 10.7953 28.5401 10.6637C28.2992 10.5321 28.0346 10.4494 27.7617 10.4204C27.4887 10.3913 27.2127 10.4165 26.9495 10.4945C26.6863 10.5725 26.4411 10.7017 26.228 10.8748C26.0139 11.0467 25.836 11.2592 25.7044 11.5001C25.5728 11.7411 25.4901 12.0056 25.461 12.2786C25.432 12.5516 25.4572 12.8276 25.5352 13.0908C25.6132 13.354 25.7424 13.5992 25.9154 13.8123L34.8113 24.9998L25.4779 36.1873C25.3025 36.3978 25.1704 36.6409 25.089 36.9025C25.0077 37.1642 24.9788 37.4394 25.0039 37.7122C25.0291 37.9851 25.1078 38.2503 25.2356 38.4927C25.3634 38.7351 25.5378 38.9499 25.7488 39.1248C26.1265 39.4279 26.5979 39.5899 27.0821 39.5831C27.3882 39.5836 27.6906 39.5167 27.9679 39.387C28.2451 39.2574 28.4904 39.0683 28.6863 38.8331L39.103 26.3331C39.4123 25.9628 39.5835 25.4965 39.5873 25.0139C39.5911 24.5314 39.4273 24.0625 39.1238 23.6873Z" fill="#7D1CD8"/>
<path d="M14.5824 11.1872C14.2343 10.7425 13.7238 10.4542 13.1632 10.3858C12.6025 10.3174 12.0377 10.4746 11.5929 10.8227C11.1481 11.1708 10.8598 11.6813 10.7914 12.2419C10.723 12.8026 10.8802 13.3675 11.2283 13.8122L20.2283 24.9997L10.8949 36.1664C10.7195 36.3769 10.5874 36.62 10.506 36.8817C10.4247 37.1433 10.3958 37.4185 10.4209 37.6913C10.4461 37.9642 10.5248 38.2294 10.6526 38.4718C10.7804 38.7142 10.9548 38.929 11.1658 39.1039C11.5406 39.4145 12.0123 39.584 12.4991 39.5831C12.8052 39.5836 13.1076 39.5166 13.3848 39.387C13.6621 39.2574 13.9074 39.0682 14.1033 38.8331L24.5199 26.3331C24.8264 25.9603 24.9939 25.4927 24.9939 25.0102C24.9939 24.5276 24.8264 24.06 24.5199 23.6872L14.5824 11.1872Z" fill="#7D1CD8"/>
</svg>
