<svg width="11" height="23" viewBox="0 0 27 41" fill="none" xmlns="http://www.w3.org/2000/svg">
<path d="M7.9273 38.7917C7.9273 39.9146 8.75738 40.8333 9.77192 40.8333H17.1504C18.1649 40.8333 18.995 39.9146 18.995 38.7917V36.75H7.9273V38.7917ZM13.4612 0C6.34093 0 0.548828 6.41083 0.548828 14.2917C0.548828 19.1508 2.74392 23.4179 6.08268 26.0108V30.625C6.08268 31.7479 6.91276 32.6667 7.9273 32.6667H18.995C20.0095 32.6667 20.8396 31.7479 20.8396 30.625V26.0108C24.1784 23.4179 26.3735 19.1508 26.3735 14.2917C26.3735 6.41083 20.5814 0 13.4612 0ZM17.1504 23.8875V28.5833H9.77192V23.8875C6.9681 21.7029 4.23806 19.4571 4.23806 14.2917C4.23806 8.65667 8.37001 4.08333 13.4612 4.08333C18.5523 4.08333 22.6842 8.65667 22.6842 14.2917C22.6842 19.3754 19.8989 21.7437 17.1504 23.8875Z" fill="#7D1CD8"/>
</svg>
