<svg width="153" height="46" viewBox="0 0 153 46" fill="none" xmlns="http://www.w3.org/2000/svg">
<rect width="153" height="46" rx="8" fill="#EDE9FE"/>
<path d="M18.699 27.095H31.269V28.73H18.699V27.095ZM19.659 17.645H30.234V19.235H19.659V17.645ZM19.719 23.39H30.189V24.995H19.719V23.39ZM21.549 19.115H23.544V23.54H21.549V19.115ZM26.364 19.115H28.344V23.54H26.364V19.115ZM32.4978 27.185H45.0678V28.805H32.4978V27.185ZM37.7628 24.56H39.7578V27.845H37.7628V24.56ZM33.9078 17.345H43.6578V21.965H35.9178V24.305H33.9378V20.405H41.6778V18.92H33.9078V17.345ZM33.9378 23.51H43.9728V25.115H33.9378V23.51ZM52.0266 19.88H54.2016V21.485H52.0266V19.88ZM53.5116 16.715H55.3716V24.845H53.5116V16.715ZM48.7266 18.53H50.2716V19.415C50.2716 21.74 49.3566 23.915 47.1066 24.815L46.1016 23.27C47.9616 22.535 48.7266 20.96 48.7266 19.415V18.53ZM49.1016 18.53H50.6466V19.415C50.6466 20.9 51.3666 22.34 53.1066 23.03L52.1316 24.56C49.9566 23.72 49.1016 21.65 49.1016 19.415V18.53ZM46.5366 17.435H52.6716V19.025H46.5366V17.435ZM56.2266 16.445H58.1166V24.905H56.2266V16.445ZM48.5766 25.415H58.1166V30.335H56.1366V27.005H48.5766V25.415ZM61.5655 23.6H71.3305V25.16H61.5655V23.6ZM60.0955 27.125H72.6655V28.745H60.0955V27.125ZM61.5655 17.45H71.2105V19.055H63.5905V24.035H61.5655V17.45ZM62.9755 20.51H70.8955V22.055H62.9755V20.51ZM87.14 16.46H89.15V24.29H87.14V16.46ZM79.91 24.935H89.15V30.185H79.91V24.935ZM87.185 26.495H81.86V28.61H87.185V26.495ZM80.855 16.955H82.505V18.29C82.505 20.87 81.215 23.21 78.5 24.065L77.54 22.49C79.865 21.77 80.855 20 80.855 18.29V16.955ZM81.26 16.955H82.895V18.29C82.895 19.97 83.87 21.59 86.12 22.265L85.16 23.81C82.505 23.015 81.26 20.84 81.26 18.29V16.955ZM94.5188 17.51H96.1388V19.535C96.1388 22.97 94.9388 26.195 92.3138 27.485L91.1138 25.88C93.4538 24.785 94.5188 22.115 94.5188 19.535V17.51ZM94.9238 17.51H96.5138V19.535C96.5138 22.025 97.5038 24.56 99.7238 25.64L98.5238 27.23C96.0188 25.955 94.9238 22.865 94.9238 19.535V17.51ZM100.279 16.445H102.289V30.335H100.279V16.445ZM101.839 21.785H104.299V23.45H101.839V21.785ZM119.238 18.245H121.638V19.88H119.238V18.245ZM119.238 21.26H121.638V22.895H119.238V21.26ZM117.858 16.445H119.853V24.635H117.858V16.445ZM110.583 25.205H119.853V30.335H117.858V26.795H110.583V25.205ZM112.788 17.195C114.933 17.195 116.568 18.62 116.568 20.6C116.568 22.58 114.933 23.99 112.788 23.99C110.643 23.99 109.008 22.58 109.008 20.6C109.008 18.62 110.643 17.195 112.788 17.195ZM112.788 18.89C111.738 18.89 110.958 19.505 110.958 20.6C110.958 21.695 111.738 22.325 112.788 22.325C113.838 22.325 114.618 21.695 114.618 20.6C114.618 19.505 113.838 18.89 112.788 18.89ZM123.332 17.45H129.272V19.055H123.332V17.45ZM125.042 20.69H127.022V24.17H125.042V20.69ZM128.492 17.45H130.457V18.32C130.457 19.295 130.457 20.675 130.127 22.4L128.192 22.19C128.492 20.48 128.492 19.28 128.492 18.32V17.45ZM131.807 16.445H133.817V26.84H131.807V16.445ZM133.022 20.675H135.467V22.31H133.022V20.675ZM124.547 28.505H134.252V30.095H124.547V28.505ZM124.547 25.91H126.542V29H124.547V25.91ZM122.702 24.98L122.522 23.405C124.922 23.405 128.267 23.36 131.057 22.97L131.177 24.38C128.312 24.92 125.087 24.98 122.702 24.98Z" fill="#7D1CD8"/>
</svg>
