<svg width="153" height="46" viewBox="0 0 153 46" fill="none" xmlns="http://www.w3.org/2000/svg">
<rect width="153" height="46" rx="8" fill="#7D1CD8"/>
<path d="M43.9773 27.185H56.5473V28.805H43.9773V27.185ZM49.2423 24.56H51.2373V27.845H49.2423V24.56ZM45.3873 17.345H55.1373V21.965H47.3973V24.305H45.4173V20.405H53.1573V18.92H45.3873V17.345ZM45.4173 23.51H55.4523V25.115H45.4173V23.51ZM59.0511 17.72H67.8561V19.295H59.0511V17.72ZM57.7761 26.9H70.3311V28.52H57.7761V26.9ZM66.8061 17.72H68.7861V19.37C68.7861 21.32 68.7861 23.21 68.2911 26.06L66.2961 25.895C66.8061 23.225 66.8061 21.245 66.8061 19.37V17.72ZM81.1 16.46H83.11V26.435H81.1V16.46ZM73.855 28.505H83.455V30.095H73.855V28.505ZM73.855 25.43H75.85V29.15H73.855V25.43ZM75.55 17.33C77.68 17.33 79.315 18.8 79.315 20.855C79.315 22.895 77.68 24.38 75.55 24.38C73.42 24.38 71.77 22.895 71.77 20.855C71.77 18.8 73.42 17.33 75.55 17.33ZM75.55 19.055C74.515 19.055 73.72 19.715 73.72 20.855C73.72 21.98 74.515 22.64 75.55 22.64C76.57 22.64 77.365 21.98 77.365 20.855C77.365 19.715 76.57 19.055 75.55 19.055ZM90.2027 17.5795L86.6871 30.6406H84.9985L88.5141 17.5795H90.2027ZM94.5674 24.89H96.5624V27.14H94.5674V24.89ZM100.642 16.445H102.637V30.335H100.642V16.445ZM91.3574 28.025L91.1174 26.42C93.6374 26.405 96.9974 26.405 99.9224 26.015L100.057 27.455C97.0424 28.01 93.8174 28.025 91.3574 28.025ZM91.3874 17.975H99.7424V19.535H91.3874V17.975ZM95.5574 20.09C97.6124 20.09 99.0374 21.14 99.0374 22.685C99.0374 24.245 97.6124 25.295 95.5574 25.295C93.5324 25.295 92.1074 24.245 92.1074 22.685C92.1074 21.14 93.5324 20.09 95.5574 20.09ZM95.5574 21.59C94.6574 21.59 94.0124 21.98 94.0124 22.685C94.0124 23.405 94.6574 23.795 95.5574 23.795C96.4874 23.795 97.1324 23.405 97.1324 22.685C97.1324 21.98 96.4874 21.59 95.5574 21.59ZM94.5674 16.505H96.5624V18.875H94.5674V16.505ZM108.456 23.57H110.451V26.615H108.456V23.57ZM114.546 16.445H116.541V26.96H114.546V16.445ZM106.536 28.505H116.841V30.095H106.536V28.505ZM106.536 25.97H108.531V28.925H106.536V25.97ZM105.036 24.17L104.796 22.58C107.331 22.58 110.721 22.55 113.631 22.175L113.751 23.6C110.796 24.095 107.541 24.17 105.036 24.17ZM111.921 24.515H114.981V25.88H111.921V24.515ZM109.266 16.925C111.291 16.925 112.716 17.93 112.716 19.4C112.716 20.885 111.291 21.875 109.266 21.875C107.226 21.875 105.801 20.885 105.801 19.4C105.801 17.93 107.226 16.925 109.266 16.925ZM109.266 18.38C108.336 18.38 107.691 18.725 107.691 19.4C107.691 20.075 108.336 20.42 109.266 20.42C110.181 20.42 110.826 20.075 110.826 19.4C110.826 18.725 110.181 18.38 109.266 18.38ZM127.52 16.43H129.53V30.32H127.52V16.43ZM129.005 21.74H131.45V23.375H129.005V21.74ZM123.875 17.87H125.825C125.825 22.04 124.235 25.61 119.615 27.935L118.505 26.42C122.15 24.53 123.875 21.98 123.875 18.215V17.87ZM119.27 17.87H124.895V19.475H119.27V17.87ZM141.979 16.445H143.989V23.915H141.979V16.445ZM134.749 24.515H136.714V25.805H142.009V24.515H143.989V30.185H134.749V24.515ZM136.714 27.335V28.595H142.009V27.335H136.714ZM136.429 17.015C138.589 17.015 140.194 18.38 140.194 20.3C140.194 22.22 138.589 23.585 136.429 23.585C134.269 23.585 132.649 22.22 132.649 20.3C132.649 18.38 134.269 17.015 136.429 17.015ZM136.429 18.665C135.364 18.665 134.599 19.28 134.599 20.3C134.599 21.335 135.364 21.935 136.429 21.935C137.479 21.935 138.244 21.335 138.244 20.3C138.244 19.28 137.479 18.665 136.429 18.665Z" fill="#EDE9FE"/>
<path d="M23.5 11C16.6 11 11 16.6 11 23.5C11 30.4 16.6 36 23.5 36C30.4 36 36 30.4 36 23.5C36 16.6 30.4 11 23.5 11ZM23.5 14.75C25.575 14.75 27.25 16.425 27.25 18.5C27.25 20.575 25.575 22.25 23.5 22.25C21.425 22.25 19.75 20.575 19.75 18.5C19.75 16.425 21.425 14.75 23.5 14.75ZM23.5 32.5C20.375 32.5 17.6125 30.9 16 28.475C16.0375 25.9875 21 24.625 23.5 24.625C25.9875 24.625 30.9625 25.9875 31 28.475C29.3875 30.9 26.625 32.5 23.5 32.5Z" fill="#EDE9FE"/>
</svg>
