<svg width="153" height="46" viewBox="0 0 153 46" fill="none" xmlns="http://www.w3.org/2000/svg">
<rect width="153" height="46" rx="8" fill="#EDE9FE"/>
<path d="M43.9588 27.095H56.5288V28.73H43.9588V27.095ZM44.9188 17.645H55.4938V19.235H44.9188V17.645ZM44.9788 23.39H55.4488V24.995H44.9788V23.39ZM46.8088 19.115H48.8038V23.54H46.8088V19.115ZM51.6238 19.115H53.6038V23.54H51.6238V19.115ZM57.7576 27.185H70.3276V28.805H57.7576V27.185ZM63.0226 24.56H65.0176V27.845H63.0226V24.56ZM59.1676 17.345H68.9176V21.965H61.1776V24.305H59.1976V20.405H66.9376V18.92H59.1676V17.345ZM59.1976 23.51H69.2326V25.115H59.1976V23.51ZM77.2864 19.88H79.4614V21.485H77.2864V19.88ZM78.7714 16.715H80.6314V24.845H78.7714V16.715ZM73.9864 18.53H75.5314V19.415C75.5314 21.74 74.6164 23.915 72.3664 24.815L71.3614 23.27C73.2214 22.535 73.9864 20.96 73.9864 19.415V18.53ZM74.3614 18.53H75.9064V19.415C75.9064 20.9 76.6264 22.34 78.3664 23.03L77.3914 24.56C75.2164 23.72 74.3614 21.65 74.3614 19.415V18.53ZM71.7964 17.435H77.9314V19.025H71.7964V17.435ZM81.4864 16.445H83.3764V24.905H81.4864V16.445ZM73.8364 25.415H83.3764V30.335H81.3964V27.005H73.8364V25.415ZM86.8252 23.6H96.5902V25.16H86.8252V23.6ZM85.3552 27.125H97.9252V28.745H85.3552V27.125ZM86.8252 17.45H96.4702V19.055H88.8502V24.035H86.8252V17.45ZM88.2352 20.51H96.1552V22.055H88.2352V20.51ZM108.125 20.84H110.105V22.685H108.125V20.84ZM109.145 16.58C112.31 16.58 114.17 17.405 114.17 18.935C114.17 20.465 112.31 21.305 109.145 21.305C105.965 21.305 104.12 20.465 104.12 18.935C104.12 17.405 105.965 16.58 109.145 16.58ZM109.145 18.035C107.135 18.035 106.19 18.32 106.19 18.935C106.19 19.58 107.135 19.85 109.145 19.85C111.155 19.85 112.1 19.58 112.1 18.935C112.1 18.32 111.155 18.035 109.145 18.035ZM102.86 22.07H115.415V23.645H102.86V22.07ZM104.3 24.38H113.9V27.95H106.28V29.18H104.315V26.57H111.935V25.865H104.3V24.38ZM104.315 28.745H114.26V30.245H104.315V28.745ZM126.229 16.43H128.224V30.365H126.229V16.43ZM117.409 25.505H118.639C121.099 25.505 123.064 25.415 125.269 25.04L125.464 26.645C123.214 27.05 121.174 27.125 118.639 27.125H117.409V25.505ZM117.394 17.615H123.949V22.985H119.434V26.105H117.409V21.41H121.909V19.205H117.394V17.615ZM140.027 16.445H142.037V30.335H140.027V16.445ZM135.932 17.885H137.912C137.912 22.13 136.472 25.61 131.537 27.995L130.502 26.405C134.492 24.485 135.932 21.965 135.932 18.245V17.885ZM131.237 17.885H136.877V19.46H131.237V17.885Z" fill="#7D1CD8"/>
<path d="M21.2143 26.0588H29.7857V18.6471H35.5L25.5 10L15.5 18.6471H21.2143V26.0588ZM15.5 28.5294H35.5V31H15.5V28.5294Z" fill="#7D1CD8"/>
</svg>
