<svg width="211" height="161" viewBox="0 0 211 161" fill="none" xmlns="http://www.w3.org/2000/svg">
<path d="M115.049 40.25C115.049 18.0119 97.8872 0 76.6991 0C55.511 0 38.3495 18.0119 38.3495 40.25C38.3495 62.4881 55.511 80.5 76.6991 80.5C97.8872 80.5 115.049 62.4881 115.049 40.25ZM95.8738 40.25C95.8738 51.3188 87.2452 60.375 76.6991 60.375C66.153 60.375 57.5243 51.3188 57.5243 40.25C57.5243 29.1812 66.153 20.125 76.6991 20.125C87.2452 20.125 95.8738 29.1812 95.8738 40.25ZM0 140.875V161H153.398V140.875C153.398 114.109 102.297 100.625 76.6991 100.625C51.1008 100.625 0 114.109 0 140.875ZM19.1748 140.875C21.0922 133.731 50.8131 120.75 76.6991 120.75C102.489 120.75 132.114 133.63 134.223 140.875H19.1748ZM182.16 110.688V80.5H210.922V60.375H182.16V30.1875H162.986V60.375H134.223V80.5H162.986V110.688H182.16Z" fill="#EDE9FE"/>
</svg>
