<svg width="66" height="66" viewBox="0 0 66 66" fill="none" xmlns="http://www.w3.org/2000/svg">
<path d="M59.1501 15.1752H57.7434C58.1756 14.0207 58.4074 12.801 58.4287 11.5685C58.3531 8.6347 57.1196 5.85007 54.9976 3.82275C52.8757 1.79542 50.0378 0.690132 47.1036 0.748277C44.2201 0.810548 41.4065 1.64691 38.9572 3.16978C36.5079 4.69265 34.5131 6.84602 33.1816 9.40442C31.8502 6.84602 29.8554 4.69265 27.4061 3.16978C24.9568 1.64691 22.1431 0.810548 19.2597 0.748277C16.3255 0.690132 13.4876 1.79542 11.3656 3.82275C9.24371 5.85007 8.01022 8.6347 7.93457 11.5685C7.95588 12.801 8.18764 14.0207 8.61985 15.1752H7.21322C6.26414 15.2653 5.34233 15.5427 4.5011 15.9912C3.65986 16.4398 2.91589 17.0506 2.31219 17.7885C1.70849 18.5264 1.25704 19.3766 0.983942 20.29C0.710844 21.2034 0.621514 22.1618 0.721119 23.11V36.0942C0.552629 37.8407 1.00165 39.591 1.99009 41.0407C2.97853 42.4904 4.44385 43.5478 6.13121 44.029V59.7904C6.24255 61.4263 6.98616 62.9547 8.20463 64.052C9.42309 65.1493 11.0208 65.7293 12.6594 65.6693H53.7039C55.3661 65.728 56.9844 65.1283 58.2068 64.0004C59.4292 62.8725 60.1571 61.3077 60.2321 59.6461V44.029C61.9194 43.5478 63.3848 42.4904 64.3732 41.0407C65.3616 39.591 65.8107 37.8407 65.6422 36.0942V23.11C65.7418 22.1618 65.6524 21.2034 65.3793 20.29C65.1062 19.3766 64.6548 18.5264 64.0511 17.7885C63.4474 17.0506 62.7034 16.4398 61.8622 15.9912C61.021 15.5427 60.0991 15.2653 59.1501 15.1752ZM58.4287 23.11V36.0942C58.472 36.3327 58.472 36.577 58.4287 36.8155H36.7884V22.3886H58.4287C58.472 22.6271 58.472 22.8715 58.4287 23.11ZM47.1036 7.96173C48.1253 7.90218 49.1295 8.24717 49.8989 8.92209C50.6683 9.59702 51.1412 10.5477 51.2153 11.5685C51.1412 12.5893 50.6683 13.5399 49.8989 14.2148C49.1295 14.8897 48.1253 15.2347 47.1036 15.1752H38.2311C38.8621 13.2484 40.0342 11.5438 41.6074 10.2647C43.1806 8.98571 45.0885 8.18625 47.1036 7.96173ZM15.148 11.5685C15.2221 10.5477 15.695 9.59702 16.4644 8.92209C17.2338 8.24717 18.2379 7.90218 19.2597 7.96173C21.2683 8.19279 23.1685 8.99522 24.7348 10.2738C26.301 11.5524 27.4676 13.2535 28.0962 15.1752H19.2597C18.2379 15.2347 17.2338 14.8897 16.4644 14.2148C15.695 13.5399 15.2221 12.5893 15.148 11.5685ZM7.93457 23.11C7.89128 22.8715 7.89128 22.6271 7.93457 22.3886H29.5749V36.8155H7.93457C7.89128 36.577 7.89128 36.3327 7.93457 36.0942V23.11ZM13.3447 44.029H29.5749V58.4559H13.3447V44.029ZM36.7884 58.4559V44.029H53.0186V58.4559H36.7884Z" fill="#231F20"/>
</svg>
