<svg width="71" height="84" viewBox="0 0 71 84" fill="none" xmlns="http://www.w3.org/2000/svg">
<path d="M64.6548 41.5342V17.4447C64.6548 16.8315 64.4112 16.2434 63.9777 15.8098L51.8448 3.6772C51.4113 3.24357 50.8233 3 50.2102 3H5.31205C4.03514 3 3 4.03514 3 5.31205V77.7564C3 79.0334 4.03514 80.0685 5.31205 80.0685H29.974" stroke="black" stroke-width="5.79445" stroke-linecap="round" stroke-linejoin="round"/>
<path d="M18.4141 33.8273H49.2415M18.4141 18.4136H33.8278M18.4141 49.241H29.9743" stroke="black" stroke-width="5.79445" stroke-linecap="round" stroke-linejoin="round"/>
<path d="M56.7702 60.5682L60.6236 56.7148C62.311 55.0274 65.047 55.0274 66.7344 56.7148C68.4218 58.4022 68.4218 61.1381 66.7344 62.8255L62.8809 66.679M56.7702 60.5682L45.2442 72.0942C44.6666 72.6718 44.2874 73.4182 44.1618 74.2251L43.2266 80.2226L49.2236 79.2878C50.0309 79.1617 50.777 78.7826 51.3546 78.2049L62.8809 66.679M56.7702 60.5682L62.8809 66.679" stroke="black" stroke-width="5.79445" stroke-linecap="round" stroke-linejoin="round"/>
<path d="M49.2402 3V16.1016C49.2402 17.3785 50.2753 18.4137 51.5523 18.4137H64.6539" stroke="black" stroke-width="5.79445" stroke-linecap="round" stroke-linejoin="round"/>
</svg>
