<svg width="71" height="78" viewBox="0 0 71 78" fill="none" xmlns="http://www.w3.org/2000/svg">
<path d="M60.7775 39.1109V16.5363C60.7775 15.9617 60.5493 15.4106 60.143 15.0042L48.7731 3.63461C48.3669 3.22826 47.8158 3 47.2413 3H5.16666C3.97005 3 3 3.97005 3 5.16666V73.0552C3 74.252 3.97005 75.2219 5.16666 75.2219H28.2777" stroke="black" stroke-width="5.43015" stroke-linecap="round" stroke-linejoin="round"/>
<path d="M17.4453 31.8887H46.3341M17.4453 17.4443H31.8897M17.4453 46.3331H28.2786" stroke="black" stroke-width="5.43015" stroke-linecap="round" stroke-linejoin="round"/>
<path d="M62.582 69.8052L67.9987 75.2218" stroke="black" stroke-width="5.43015" stroke-linecap="round" stroke-linejoin="round"/>
<path d="M42.7227 60.7776C42.7227 66.7608 47.5727 71.6109 53.5559 71.6109C56.5528 71.6109 59.2651 70.394 61.2263 68.4277C63.181 66.468 64.3892 63.764 64.3892 60.7776C64.3892 54.7944 59.5392 49.9443 53.5559 49.9443C47.5727 49.9443 42.7227 54.7944 42.7227 60.7776Z" stroke="black" stroke-width="5.43015" stroke-linecap="round" stroke-linejoin="round"/>
<path d="M46.332 3V15.2777C46.332 16.4743 47.302 17.4444 48.4987 17.4444H60.7764" stroke="black" stroke-width="5.43015" stroke-linecap="round" stroke-linejoin="round"/>
</svg>
